<?xml version="1.0" standalone="no"?>
<!DOCTYPE svg PUBLIC "-//W3C//DTD SVG 20010904//EN"
 "http://www.w3.org/TR/2001/REC-SVG-20010904/DTD/svg10.dtd">
<svg version="1.0" xmlns="http://www.w3.org/2000/svg"
 width="400.000000pt" height="400.000000pt" viewBox="0 0 400.000000 400.000000"
 preserveAspectRatio="xMidYMid meet">
<metadata>
Created by potrace 1.14, written by Peter Selinger 2001-2017
</metadata>
<g transform="translate(0.000000,400.000000) scale(0.100000,-0.100000)"
fill="#000000" stroke="none">
<path d="M680 3845 c-10 -12 -15 -13 -28 -3 -8 7 -16 13 -16 12 -1 0 -11 -6
-24 -13 -12 -7 -20 -16 -17 -21 3 -6 -1 -7 -9 -4 -9 3 -13 10 -10 15 9 15 -3
10 -17 -8 -12 -14 -12 -16 0 -8 10 5 12 4 7 -4 -6 -9 -11 -9 -22 0 -12 10 -13
9 -8 -5 5 -12 2 -15 -12 -9 -13 5 -15 3 -9 -7 5 -9 4 -11 -4 -6 -6 4 -18 2
-26 -4 -8 -6 -19 -9 -25 -5 -5 3 -10 1 -10 -5 0 -6 -5 -8 -12 -4 -8 5 -7 0 2
-11 14 -17 14 -18 -10 -5 -24 13 -24 12 -10 -5 9 -11 10 -16 3 -11 -7 4 -13 2
-13 -3 0 -6 -5 -10 -12 -8 -6 1 -14 -7 -16 -18 -2 -11 -9 -24 -14 -30 -8 -7
-8 -5 -3 5 5 8 4 11 0 7 -5 -4 -10 -15 -11 -23 -4 -29 -14 -45 -23 -40 -5 3
-7 -2 -4 -13 3 -10 0 -22 -6 -25 -6 -4 -11 -19 -11 -33 0 -15 -8 -35 -17 -45
-16 -18 -16 -19 3 -13 18 6 18 6 2 -8 -13 -10 -15 -16 -6 -25 9 -9 9 -12 -2
-12 -7 0 -10 -3 -7 -7 4 -3 1 -13 -6 -21 -9 -13 -9 -14 1 -8 6 4 12 3 12 -3 0
-5 -6 -12 -12 -14 -10 -4 -9 -6 1 -6 11 -1 11 -4 1 -16 -10 -12 -10 -18 0 -30
9 -10 9 -15 1 -15 -6 0 -11 -5 -11 -11 0 -5 6 -7 13 -3 8 5 8 2 -2 -9 -12 -15
-11 -17 2 -17 9 0 18 -4 21 -9 4 -5 -4 -7 -16 -3 -20 5 -21 3 -10 -10 10 -13
10 -17 0 -20 -11 -4 -11 -8 0 -20 9 -12 10 -18 2 -23 -8 -5 -6 -14 7 -28 10
-11 13 -18 8 -14 -7 3 -11 -9 -11 -33 0 -30 3 -37 15 -32 14 5 14 3 2 -11 -7
-9 -10 -17 -5 -17 5 0 9 -18 10 -41 0 -24 6 -44 15 -50 12 -7 12 -9 -1 -9 -13
0 -13 -1 0 -10 13 -9 13 -11 0 -20 -13 -9 -7 -14 12 -11 4 0 4 -7 1 -16 -4
-10 -2 -14 4 -10 6 4 9 -5 8 -21 -1 -15 3 -36 8 -47 5 -11 6 -17 2 -13 -10 10
-78 -20 -89 -39 -7 -13 -10 -13 -17 -2 -7 11 -9 10 -9 -3 0 -10 -5 -18 -11
-18 -5 0 -7 6 -4 13 4 6 -2 2 -12 -10 -10 -12 -37 -31 -60 -43 -24 -12 -40
-26 -37 -32 4 -5 -4 -4 -17 3 -22 11 -23 11 -10 -5 12 -14 12 -16 -1 -11 -8 3
-21 -2 -29 -12 -13 -17 -13 -17 6 -3 20 14 20 14 1 -7 -10 -12 -16 -29 -13
-38 4 -8 1 -15 -5 -15 -6 0 -5 -6 3 -17 12 -15 12 -16 -5 -10 -14 6 -16 4 -9
-5 14 -18 25 -81 13 -73 -6 3 -7 -1 -4 -9 3 -9 9 -14 13 -11 4 2 7 -6 6 -18
-1 -12 4 -31 11 -41 8 -12 10 -24 5 -30 -6 -7 -4 -19 5 -30 8 -11 14 -16 14
-12 0 4 12 -6 26 -23 14 -17 33 -31 42 -31 13 0 12 -3 -4 -16 -10 -8 -14 -13
-9 -10 6 2 17 1 25 -5 13 -7 12 -9 -2 -9 -14 0 -16 -4 -8 -24 5 -13 6 -27 3
-30 -4 -3 -1 -6 7 -6 10 0 10 -3 0 -15 -7 -8 -8 -15 -3 -15 5 0 9 -10 10 -22
1 -11 8 -25 15 -29 10 -7 10 -9 -1 -9 -9 0 -7 -5 6 -17 10 -10 13 -14 6 -9
-19 12 -16 2 7 -24 11 -12 17 -27 13 -33 -3 -6 -1 -7 5 -3 7 4 12 1 12 -9 0
-10 5 -13 13 -9 8 5 8 2 -2 -9 -7 -9 -9 -17 -3 -17 5 0 9 -13 8 -29 -1 -17 1
-28 5 -25 11 6 5 -30 -6 -38 -6 -4 -1 -8 9 -8 11 0 16 -3 13 -6 -3 -4 -2 -16
4 -27 7 -12 7 -17 1 -13 -5 3 -13 -1 -16 -10 -9 -24 -7 -36 6 -28 6 4 8 3 4
-4 -3 -6 -16 -9 -27 -7 -21 4 -21 4 -3 -17 11 -12 13 -18 7 -14 -7 4 -13 2
-13 -3 0 -6 5 -11 11 -11 8 0 7 -6 -2 -17 -12 -14 -12 -16 0 -8 11 6 13 3 9
-13 -3 -11 1 -30 9 -41 13 -19 12 -20 -4 -15 -17 5 -17 5 0 -6 11 -7 16 -20
13 -36 -4 -21 -3 -24 10 -14 17 15 19 -1 2 -18 -9 -9 -9 -12 2 -12 13 0 13 -2
0 -10 -10 -6 -11 -10 -2 -10 6 0 12 -11 12 -25 0 -14 6 -25 13 -25 8 0 7 -4
-3 -10 -12 -8 -12 -10 -1 -10 9 0 12 -8 9 -25 -3 -13 -2 -22 2 -20 4 3 14 -3
21 -12 12 -15 12 -16 -5 -9 -19 6 -19 6 -3 -12 9 -10 14 -23 10 -27 -5 -5 1
-3 11 5 13 10 17 10 12 3 -4 -8 -2 -13 5 -13 8 0 7 -5 -2 -17 -12 -14 -12 -16
0 -8 11 6 13 3 8 -14 -4 -18 -3 -20 8 -11 15 12 16 -5 2 -27 -5 -8 -3 -13 3
-13 7 0 10 -7 6 -15 -3 -8 0 -15 7 -15 8 0 6 -4 -3 -10 -12 -8 -12 -10 5 -10
17 0 17 -2 5 -10 -13 -8 -12 -10 4 -10 20 0 20 0 0 -16 -10 -8 -13 -13 -7 -9
7 3 13 1 13 -4 0 -6 -6 -11 -12 -11 -9 0 -8 -4 2 -10 14 -9 7 -14 -15 -11 -5
1 -2 -5 7 -12 14 -11 15 -16 5 -27 -9 -10 -9 -11 0 -6 9 5 13 0 13 -14 0 -13
4 -19 12 -14 7 5 8 3 2 -7 -14 -23 -13 -38 5 -52 9 -6 16 -19 16 -27 0 -8 4
-18 10 -22 5 -4 10 -11 10 -15 1 -4 7 -19 14 -32 11 -20 11 -22 -1 -15 -9 6
-9 2 2 -12 8 -10 18 -21 21 -24 4 -3 8 -14 10 -25 2 -11 14 -25 27 -31 12 -6
19 -14 15 -17 -3 -4 -1 -7 6 -7 7 0 9 -4 6 -10 -3 -5 0 -10 7 -10 7 0 19 -9
26 -20 7 -11 21 -20 33 -20 13 0 18 -4 13 -12 -5 -7 -2 -9 9 -5 12 4 15 1 12
-14 -2 -11 0 -17 5 -14 13 8 60 -17 53 -28 -4 -6 3 -8 17 -4 16 4 23 1 27 -14
3 -10 9 -16 14 -13 5 3 9 -4 9 -15 0 -14 6 -21 19 -21 11 0 23 -5 27 -12 5 -7
2 -9 -7 -4 -8 4 -3 -2 11 -13 14 -11 31 -19 38 -16 7 3 10 0 7 -5 -3 -6 -1
-10 5 -10 6 0 8 -6 4 -12 -6 -10 -4 -10 7 0 14 13 30 16 28 5 -3 -20 2 -26 11
-13 8 13 10 12 10 -2 0 -21 16 -24 23 -5 4 10 6 10 6 0 1 -7 12 -13 26 -13 14
0 25 -4 25 -10 0 -5 11 -10 25 -10 14 0 28 -7 32 -16 5 -13 7 -13 14 -2 6 9 9
7 9 -9 0 -12 5 -25 12 -29 7 -5 8 -3 3 5 -5 9 -1 9 14 -1 12 -7 21 -16 21 -21
0 -4 5 -5 10 -2 6 3 13 -1 16 -10 6 -13 8 -14 15 -3 7 10 9 10 9 1 0 -7 8 -13
18 -13 10 0 28 -9 40 -20 14 -13 22 -16 22 -8 0 8 3 9 8 3 4 -5 16 -17 27 -25
l20 -15 -20 24 -20 24 23 -14 c12 -8 22 -18 22 -23 0 -4 6 -3 14 3 11 10 17 8
25 -6 10 -17 10 -17 11 2 0 15 2 17 9 7 4 -8 12 -14 17 -15 5 -1 8 -6 6 -12
-1 -5 5 -1 13 10 15 19 17 19 26 2 6 -9 15 -15 20 -12 5 4 7 11 4 16 -4 5 -1
9 4 9 6 0 11 -8 11 -17 0 -14 2 -15 9 -4 7 11 10 11 15 0 5 -11 7 -11 12 -1 5
10 9 10 20 1 11 -9 18 -8 32 4 17 15 20 15 36 -1 11 -9 16 -11 12 -5 -5 8 -1
13 9 13 10 0 13 5 9 13 -6 9 -4 9 7 1 8 -6 31 -10 52 -9 21 1 40 -2 43 -6 2
-4 -5 -6 -17 -4 -12 2 -18 1 -15 -3 8 -7 14 -9 47 -11 12 0 17 -5 13 -12 -4
-7 7 -10 32 -9 55 3 66 1 60 -8 -3 -5 1 -9 9 -9 8 0 12 4 9 9 -10 16 15 7 26
-9 11 -16 11 -16 5 1 -6 20 -6 20 16 0 22 -19 22 -19 11 3 -11 19 -9 20 11 15
12 -3 25 -10 29 -16 5 -6 8 -1 8 12 0 12 5 22 11 22 6 0 9 -8 5 -17 -4 -12 0
-10 10 4 9 13 23 23 31 23 8 0 11 5 8 10 -7 11 24 8 59 -6 13 -5 17 -4 12 4
-5 8 -2 10 8 6 9 -3 13 -11 10 -16 -4 -6 1 -6 13 1 14 7 24 7 33 -2 10 -9 11
-9 6 1 -4 6 -2 12 3 12 6 0 11 -6 11 -12 0 -9 4 -8 10 2 5 8 10 11 10 6 0 -5
6 -3 14 3 10 8 16 9 21 1 3 -6 11 -7 17 -4 6 4 14 0 19 -7 7 -11 9 -10 9 5 0
16 2 17 17 5 11 -10 14 -10 9 -1 -4 6 -2 12 3 12 6 0 11 -5 11 -12 0 -6 7 -3
16 8 8 10 13 13 9 7 -9 -18 6 -16 34 4 14 9 21 11 17 5 -4 -6 1 -10 13 -9 12
1 17 6 13 17 -5 13 -4 13 13 0 11 -9 16 -10 11 -2 -5 8 0 12 18 12 14 0 28 5
32 11 4 8 9 7 15 -2 7 -11 9 -10 9 3 0 10 6 17 13 15 6 -1 11 4 9 11 -2 9 2
11 10 6 19 -12 39 -14 32 -3 -3 5 0 9 6 9 6 0 8 5 4 11 -4 7 1 7 16 -1 15 -8
20 -8 16 -1 -6 9 17 17 27 9 2 -2 16 5 31 16 16 10 26 14 22 8 -8 -14 36 -2
49 13 12 14 48 29 41 17 -11 -18 25 -7 41 12 l18 21 -25 -20 -25 -20 19 22
c10 13 22 20 26 18 11 -7 51 31 42 41 -4 4 2 2 12 -6 13 -10 17 -10 12 -2 -7
12 2 14 61 15 12 0 20 4 17 8 -3 5 4 9 16 9 14 0 19 -4 15 -12 -4 -7 0 -5 8 4
11 14 16 15 27 5 10 -10 11 -9 5 2 -6 11 -4 13 8 8 8 -3 21 1 27 8 7 8 16 12
21 9 5 -3 21 8 36 23 14 15 23 22 19 16 -4 -7 -3 -13 2 -13 6 0 13 7 16 16 4
10 12 14 22 10 11 -4 15 -2 11 8 -4 11 -1 13 10 9 12 -5 14 -3 8 7 -6 10 -4
12 8 7 11 -4 20 1 27 14 6 11 15 17 21 14 5 -4 8 -1 7 6 -2 6 3 14 11 17 9 3
11 0 6 -8 -5 -9 -4 -11 4 -6 9 6 9 11 1 21 -8 10 -8 15 1 21 8 5 10 3 5 -7 -4
-8 -1 -6 7 3 8 10 17 15 21 11 4 -4 4 0 1 8 -3 9 2 22 12 30 17 13 17 13 3 -6
-14 -18 -14 -19 2 -7 9 7 15 22 13 33 -2 11 0 17 6 14 5 -4 9 -1 9 5 0 6 5 8
13 4 9 -6 9 -5 -1 8 -10 12 -9 18 3 28 8 7 12 16 9 21 -3 5 2 9 11 9 11 0 15
5 11 16 -3 8 -2 12 3 9 5 -3 12 -1 16 5 4 6 11 7 17 4 6 -4 8 -2 4 4 -3 6 2
15 11 21 12 7 13 10 4 11 -11 0 -11 3 -1 15 10 12 10 15 0 15 -9 0 -9 4 -2 13
6 6 9 26 8 44 -1 22 1 29 9 23 7 -6 11 -3 11 10 0 10 -4 16 -8 14 -4 -3 -8 0
-8 5 0 6 5 11 11 11 6 0 9 6 6 13 -2 6 0 20 5 29 6 13 5 18 -4 18 -8 0 -9 3
-3 8 10 7 17 27 18 50 0 6 5 12 10 12 5 0 4 7 -3 15 -10 12 -9 15 6 16 12 0
14 3 6 6 -10 4 -9 9 5 19 11 9 13 13 4 12 -7 -2 -16 3 -19 11 -3 9 0 12 10 9
9 -4 14 1 15 13 1 11 -2 17 -6 15 -4 -3 -8 1 -8 9 0 8 4 12 8 10 4 -3 9 2 13
10 3 8 1 17 -4 20 -6 4 -10 12 -10 18 0 7 4 6 10 -3 8 -13 10 -12 10 3 0 25
-4 32 -15 29 -5 -1 -3 3 6 10 17 15 34 53 19 43 -6 -3 -7 1 -4 9 3 9 9 14 13
12 9 -6 7 37 -3 52 -4 8 -1 12 11 12 17 1 17 2 -1 15 -20 15 -20 15 0 16 10 0
13 3 7 6 -7 2 -13 9 -13 14 0 6 5 7 12 3 6 -4 8 -3 5 2 -3 6 -2 16 3 24 5 9 5
19 -2 27 -8 10 -6 13 8 13 18 1 18 1 1 11 -17 10 -17 12 -2 36 10 14 13 23 7
19 -5 -3 -13 1 -16 10 -8 21 -8 26 3 20 5 -3 15 2 22 11 10 12 10 14 2 9 -7
-4 -13 -2 -13 3 0 10 11 14 30 13 3 0 5 25 5 56 0 32 4 60 10 64 6 5 5 8 -3 8
-7 0 -10 5 -7 10 5 8 12 7 23 -2 13 -11 14 -11 7 2 -15 23 -16 81 -2 73 7 -3
9 -2 4 2 -4 5 1 18 10 29 17 20 17 20 -1 6 -18 -14 -19 -13 -12 5 5 11 8 28 8
38 0 9 3 15 7 13 4 -3 7 5 6 17 -1 12 3 25 9 29 7 5 6 8 -4 8 -13 0 -13 1 0
10 8 5 15 22 15 38 1 31 27 66 41 54 5 -4 3 1 -4 10 -11 14 -10 16 11 14 14
-2 24 2 24 10 0 7 -3 11 -7 9 -4 -2 -7 2 -7 10 0 8 5 13 11 12 6 -1 10 7 8 17
-2 10 2 23 10 27 10 7 10 9 1 9 -7 0 -13 5 -13 11 0 5 4 8 9 5 5 -4 7 4 3 16
-3 12 -1 19 5 15 5 -3 10 0 10 8 0 8 -4 12 -9 9 -4 -3 -8 -1 -8 5 0 5 4 12 10
16 5 3 6 13 3 22 -4 11 -3 14 5 9 9 -5 9 0 2 19 -12 31 -12 38 -2 32 4 -3 6
13 6 35 -1 26 -7 44 -17 49 -9 5 -14 18 -12 28 2 11 -3 22 -11 25 -10 4 -13 2
-8 -7 5 -9 3 -8 -7 1 -12 11 -12 14 1 22 12 8 10 10 -8 10 -21 0 -22 1 -8 16
20 19 20 25 1 18 -11 -5 -13 -2 -9 10 3 9 9 14 13 12 4 -3 7 4 7 14 0 10 -6
16 -13 13 -7 -3 -13 0 -13 6 0 6 6 11 14 11 8 0 18 5 21 10 4 6 1 9 -7 8 -8
-2 -12 4 -10 15 2 10 -3 26 -10 35 -11 13 -11 15 5 9 21 -8 22 -3 1 17 -9 9
-12 21 -7 28 14 24 11 38 -10 53 -12 8 -16 15 -9 15 6 0 12 5 12 11 0 5 -5 7
-10 4 -5 -3 -10 -2 -10 4 0 5 6 12 13 14 10 4 10 6 0 6 -7 1 -13 13 -13 29 0
21 -2 24 -10 12 -8 -12 -10 -10 -10 8 0 16 -4 21 -12 16 -9 -5 -9 -2 1 9 12
15 11 17 -2 17 -9 0 -19 5 -23 12 -5 7 -3 8 6 3 21 -13 1 15 -44 63 -22 23
-46 42 -53 42 -7 0 -13 5 -13 11 0 8 -4 8 -15 -1 -12 -10 -13 -8 -10 10 3 17
1 19 -9 11 -16 -14 -26 -4 -19 17 4 12 1 11 -10 -3 -14 -19 -16 -19 -22 -2 -5
11 -18 17 -41 17 -20 0 -34 5 -34 13 0 8 -4 7 -10 -3 -9 -13 -10 -13 -10 0 0
13 -1 13 -10 0 -6 -10 -10 -11 -10 -2 0 6 -5 12 -11 12 -6 0 -9 -7 -5 -15 7
-19 1 -19 -18 1 -12 12 -16 12 -16 2 0 -10 -3 -9 -10 2 -8 13 -10 12 -10 -2 0
-10 -5 -18 -11 -18 -5 0 -8 4 -5 9 8 12 -35 2 -53 -13 -11 -8 -13 -8 -8 1 4 7
1 10 -9 9 -8 -1 -19 -8 -24 -16 -4 -7 -15 -10 -25 -6 -13 5 -16 2 -11 -10 5
-14 4 -15 -8 -5 -11 9 -15 8 -20 -4 -3 -8 -15 -15 -26 -15 -14 0 -19 -4 -14
-12 5 -8 2 -9 -9 -5 -9 3 -19 1 -23 -5 -5 -7 -2 -8 6 -3 9 6 11 4 5 -4 -4 -7
-16 -10 -27 -8 -16 5 -17 3 -6 -11 7 -9 9 -14 4 -10 -14 12 -48 -12 -42 -28 3
-8 2 -12 -4 -9 -11 7 -71 -50 -62 -61 4 -4 0 -5 -9 -2 -9 4 -21 -2 -29 -15
-12 -21 -12 -21 5 -7 18 14 18 13 0 -11 -11 -15 -22 -24 -25 -20 -9 14 -51 20
-44 8 3 -7 -1 -4 -9 6 -10 12 -17 14 -22 8 -3 -6 -12 -11 -18 -11 -7 0 -6 4 3
10 13 8 12 10 -3 10 -10 0 -15 5 -12 10 4 6 3 10 -2 9 -21 -4 -33 2 -33 16 0
8 -6 12 -14 9 -9 -3 -19 5 -28 22 -8 16 -23 29 -37 31 -14 2 -30 8 -36 13 -7
5 -15 7 -18 3 -4 -3 -9 1 -13 10 -3 9 -12 13 -20 10 -10 -4 -12 0 -8 11 4 12
2 15 -9 11 -8 -4 -22 1 -31 10 -9 9 -16 12 -16 7 0 -5 -7 -9 -15 -9 -11 0 -12
4 -3 14 9 11 7 12 -7 7 -13 -5 -16 -4 -11 4 9 16 -7 15 -22 0 -9 -9 -12 -8
-12 5 0 9 -5 17 -11 17 -5 0 -8 -3 -6 -7 3 -5 -6 -9 -19 -9 -13 -1 -24 3 -24
10 0 6 -9 12 -20 13 -13 1 -18 -2 -13 -10 5 -9 3 -9 -8 -1 -19 14 -69 17 -69
3 0 -5 -5 -7 -10 -4 -6 4 -7 12 -3 18 3 7 -4 3 -17 -8 -13 -11 -20 -15 -17 -8
5 7 1 10 -10 9 -9 -2 -19 -8 -21 -15 -3 -8 -8 -7 -16 4 -11 15 -13 15 -27 -2
-13 -16 -13 -17 4 -4 9 8 17 9 17 3 0 -16 -23 -21 -44 -10 -13 7 -16 7 -12 -1
5 -7 -3 -11 -19 -11 -14 0 -24 -4 -20 -9 3 -5 1 -12 -5 -16 -5 -3 -10 1 -10
11 0 13 -3 14 -15 4 -8 -6 -19 -9 -24 -5 -6 3 -8 0 -5 -9 4 -11 -1 -14 -20
-12 -17 2 -26 -2 -26 -11 0 -8 -4 -11 -10 -8 -5 3 -10 2 -10 -3 0 -5 -11 -8
-25 -7 -13 2 -30 -4 -37 -13 -12 -15 -11 -16 5 -3 11 9 17 10 17 2 0 -11 -13
-15 -39 -12 -7 2 -10 -2 -6 -8 3 -7 0 -8 -9 -5 -9 3 -13 10 -10 15 3 5 -7 4
-21 -1 -15 -6 -31 -8 -36 -4 -5 3 -9 -1 -9 -8 -1 -8 -7 -5 -16 7 -16 20 -16
20 -10 -1 4 -14 2 -21 -8 -21 -9 0 -13 4 -11 8 3 4 -2 10 -11 13 -8 3 -13 2
-10 -3 3 -5 -2 -12 -11 -16 -10 -3 -19 -1 -21 4 -2 7 -10 8 -21 1 -10 -5 -32
-7 -50 -5 -23 3 -30 1 -24 -8 5 -8 2 -8 -9 1 -11 9 -17 9 -20 2 -4 -14 -78
-22 -78 -8 0 5 -5 6 -10 3 -6 -4 -8 -11 -5 -16 3 -5 -1 -6 -10 -3 -13 5 -13 9
-3 23 9 11 6 10 -9 -3 -14 -12 -32 -17 -48 -14 -18 4 -23 2 -16 -6 7 -8 4 -12
-9 -12 -10 0 -16 4 -14 8 3 4 0 8 -7 8 -6 0 -9 8 -6 20 3 10 2 19 -2 18 -18
-2 -22 3 -12 16 10 11 7 17 -11 30 -15 11 -17 16 -8 16 13 0 13 2 1 9 -8 5
-16 17 -17 25 -1 9 2 14 7 10 5 -3 6 -10 3 -16 -5 -7 -2 -8 6 -3 10 6 8 12 -9
27 -13 10 -28 15 -34 11 -6 -3 -7 -1 -3 6 4 6 13 9 19 5 7 -3 3 2 -7 10 -15
12 -16 16 -5 17 8 1 3 5 -11 9 -19 6 -20 8 -6 9 14 1 16 4 7 14 -6 8 -7 18 -3
23 4 4 -1 3 -10 -4 -14 -11 -16 -10 -11 7 3 13 1 21 -6 21 -7 0 -9 5 -6 10 3
6 -2 10 -12 11 -10 0 -13 3 -6 6 8 3 2 14 -17 30 -17 14 -28 29 -25 33 3 5 -5
16 -17 26 -20 14 -21 16 -3 10 18 -6 19 -5 3 7 -10 8 -14 17 -10 21 4 4 0 6
-8 4 -9 -2 -14 4 -14 14 1 10 -2 15 -7 12 -5 -3 -9 0 -9 6 0 6 -5 8 -12 4 -8
-5 -9 0 -5 15 4 18 3 20 -9 10 -11 -9 -14 -9 -14 0 0 7 -5 9 -12 5 -8 -5 -8
-2 1 10 8 9 10 16 5 15 -23 -4 -55 14 -49 29 4 12 3 13 -10 2 -12 -10 -15 -10
-15 5 0 11 -5 15 -15 11 -9 -3 -19 3 -25 15 -6 11 -16 16 -22 13 -7 -5 -9 -2
-6 7 4 9 -2 14 -19 15 -13 1 -34 10 -45 20 -12 11 -18 13 -13 5 5 -9 -1 -8
-18 4 -15 9 -31 14 -37 10 -5 -3 -10 -1 -10 6 0 8 -5 7 -17 -2 -14 -12 -16
-12 -8 0 6 11 4 13 -8 8 -9 -3 -18 1 -21 10 -6 14 -9 14 -27 -3 -18 -16 -19
-16 -13 -1 3 10 1 17 -5 17 -6 0 -11 -4 -11 -8 0 -5 -7 -9 -15 -9 -10 0 -14 6
-10 16 4 13 2 12 -9 -1 -16 -22 -30 -23 -22 -3 7 19 2 19 -14 0z m-50 -15 c0
-5 -5 -10 -11 -10 -5 0 -7 5 -4 10 3 6 8 10 11 10 2 0 4 -4 4 -10z m154 -212
c-3 -4 0 -8 5 -8 6 0 11 6 11 13 0 9 2 9 8 0 4 -6 20 -10 35 -9 19 2 27 -1 27
-12 0 -12 2 -12 17 -1 10 8 14 9 10 2 -4 -6 -3 -14 3 -18 5 -3 10 -1 10 6 0 7
9 3 20 -9 23 -24 38 -30 24 -9 -5 7 -2 5 8 -5 9 -10 24 -18 35 -18 15 0 16 -2
3 -10 -12 -8 -10 -10 9 -10 16 0 21 -4 18 -14 -4 -10 -1 -13 9 -9 10 3 14 -2
15 -18 0 -13 3 -18 6 -12 4 10 7 10 17 0 18 -17 41 -60 38 -70 -1 -5 2 -6 8
-2 5 3 10 0 10 -8 0 -8 7 -18 16 -21 9 -3 14 -12 11 -20 -7 -18 3 -28 17 -17
7 6 11 2 12 -12 1 -45 21 -80 39 -69 6 3 4 -2 -4 -11 -7 -9 -9 -17 -4 -17 5 0
9 -10 10 -22 1 -11 7 -24 14 -28 6 -4 8 -13 5 -19 -4 -6 -1 -11 8 -11 8 0 18
-4 21 -10 3 -6 -1 -7 -10 -4 -9 4 -15 3 -14 -2 1 -5 1 -15 0 -23 -1 -11 -4
-11 -18 0 -9 8 -14 9 -10 2 10 -16 -14 -22 -37 -10 -16 8 -18 6 -13 -7 6 -14
3 -15 -16 -5 -21 12 -21 11 -7 -6 8 -10 10 -16 3 -12 -6 4 -22 3 -35 -2 -15
-6 -31 -5 -42 1 -13 7 -17 7 -12 0 3 -6 2 -13 -4 -17 -5 -3 -10 -2 -10 3 0 5
-6 9 -14 9 -9 0 -12 -6 -8 -16 5 -14 3 -14 -11 -2 -15 12 -17 11 -17 -5 0 -16
-2 -17 -11 -4 -8 12 -12 12 -16 2 -4 -9 -8 -10 -18 -2 -10 8 -15 8 -21 -1 -5
-8 -3 -9 6 -4 9 6 11 4 6 -4 -5 -7 -14 -10 -21 -7 -7 2 -18 -1 -25 -7 -7 -7
-10 -7 -7 -2 3 6 -5 10 -18 10 -13 0 -21 -5 -18 -11 6 -17 -18 -29 -27 -14 -5
8 -9 7 -14 -5 -4 -12 -10 -14 -23 -6 -14 8 -23 4 -41 -17 -12 -15 -21 -22 -20
-15 2 6 0 11 -4 12 -23 3 -28 0 -22 -11 6 -10 4 -10 -8 0 -13 10 -18 10 -24 1
-5 -8 -3 -9 6 -4 8 5 11 4 7 -2 -3 -5 -24 -9 -45 -9 -31 1 -39 -2 -34 -14 3
-8 2 -12 -3 -8 -4 4 -15 2 -23 -5 -13 -10 -14 -9 -7 3 7 12 6 13 -6 3 -13 -10
-19 -10 -35 3 -10 8 -13 13 -6 9 6 -3 12 -1 12 4 0 6 -5 11 -10 11 -7 0 -7 6
0 19 7 14 7 22 0 26 -6 4 -7 11 -4 17 4 6 2 8 -3 5 -6 -4 -14 0 -17 9 -3 8 -2
12 4 9 6 -3 10 -1 10 4 0 6 -4 11 -10 11 -5 0 -10 4 -10 10 0 5 8 6 17 3 15
-6 16 -5 3 9 -8 9 -19 13 -25 10 -5 -3 -4 2 4 11 10 13 10 17 1 17 -10 0 -10
3 0 15 7 8 8 15 3 15 -12 0 -13 31 -1 47 6 7 4 14 -3 19 -8 4 -9 3 -5 -4 11
-18 0 -14 -15 5 -12 14 -12 16 0 8 11 -6 13 -4 7 10 -6 16 -4 16 10 4 16 -13
16 -12 4 11 -7 14 -18 29 -24 33 -7 6 -4 7 7 3 9 -3 17 -1 17 4 0 6 -6 10 -12
10 -7 0 -5 5 5 11 19 11 23 29 6 29 -5 0 -7 -6 -3 -12 4 -7 3 -10 -1 -5 -10 9
-15 46 -6 45 19 -2 24 4 11 12 -12 8 -12 10 -1 10 11 0 11 3 0 17 -10 11 -10
14 -1 9 7 -4 12 -1 12 9 0 10 5 13 13 9 9 -6 9 -5 0 7 -10 12 -8 17 8 28 12 7
18 15 15 18 -3 3 1 18 9 33 8 15 12 30 9 33 -3 3 3 3 15 0 14 -3 21 -1 21 8 0
16 39 44 47 35 4 -3 12 2 20 12 9 10 11 11 7 2 -6 -12 -5 -13 7 -3 8 6 27 10
41 9 15 -2 25 0 23 5 -5 8 11 16 32 16 7 0 10 -4 7 -9z m-244 -142 c0 -3 -4
-8 -10 -11 -5 -3 -10 -1 -10 4 0 6 5 11 10 11 6 0 10 -2 10 -4z m3175 -216
c10 -11 16 -20 13 -20 -3 0 -13 9 -23 20 -10 11 -16 20 -13 20 3 0 13 -9 23
-20z m-941 -68 c3 -5 -1 -9 -9 -9 -8 0 -12 4 -9 9 3 4 7 8 9 8 2 0 6 -4 9 -8z
m-2471 -67 c-7 -21 -12 -19 -10 4 0 11 5 18 9 15 4 -3 5 -11 1 -19z m3152 7
c-4 -10 0 -10 16 1 21 15 59 12 59 -4 0 -5 5 -9 11 -9 5 0 7 6 4 13 -4 6 3 1
14 -13 16 -19 20 -20 14 -6 -4 13 -3 17 5 12 7 -4 12 -14 12 -22 0 -9 5 -12
12 -8 8 5 9 2 4 -11 -5 -15 -4 -16 9 -5 13 10 15 9 15 -9 0 -13 6 -21 18 -21
13 0 14 -2 4 -9 -11 -6 -9 -9 7 -14 15 -4 18 -10 14 -27 -4 -14 -2 -21 4 -17
5 3 10 0 10 -8 0 -8 -4 -12 -9 -9 -13 8 -9 -6 7 -22 8 -8 11 -22 8 -31 -5 -12
-3 -14 8 -8 12 8 12 6 0 -8 -7 -9 -10 -17 -5 -17 5 0 10 -12 11 -27 1 -18 -1
-22 -8 -12 -5 8 -20 13 -39 11 -17 -2 -30 1 -30 8 0 6 5 8 12 4 6 -4 8 -3 5 4
-4 5 -15 8 -26 5 -11 -3 -21 2 -24 11 -4 9 -14 13 -27 11 -11 -2 -20 0 -20 5
0 5 -9 7 -19 5 -11 -2 -25 3 -32 11 -6 8 -20 14 -31 14 -10 0 -17 4 -14 8 2 4
-4 9 -15 10 -43 4 -49 6 -49 16 0 6 -5 4 -10 -4 -8 -13 -10 -13 -10 1 0 11 -9
15 -33 14 -29 0 -33 2 -30 20 4 16 3 17 -6 5 -9 -13 -14 -13 -31 -2 -11 7 -26
9 -33 5 -7 -4 -6 1 2 11 8 9 10 16 5 14 -5 -2 -9 2 -9 7 0 6 5 9 12 9 7 -1 12
1 11 5 -2 18 3 31 13 31 5 0 7 -6 4 -12 -4 -7 0 -4 9 6 8 10 13 24 9 30 -3 6
0 5 8 -1 17 -16 33 -17 23 -1 -5 8 -2 9 9 5 10 -3 17 -2 17 4 0 6 5 7 10 4 6
-3 10 -1 10 5 0 7 7 10 15 6 8 -3 15 -1 15 5 0 6 9 5 23 -2 19 -11 20 -10 10
2 -10 12 -8 15 8 15 12 0 18 -5 14 -14z m-2925 -146 c0 -3 -4 -8 -10 -11 -5
-3 -10 -1 -10 4 0 6 5 11 10 11 6 0 10 -2 10 -4z m-366 -685 c-3 -3 -15 6 -27
18 l-22 24 27 -19 c14 -10 24 -21 22 -23z m303 -1287 c-3 -3 -12 -4 -19 -1 -8
3 -5 6 6 6 11 1 17 -2 13 -5z m98 -212 c-3 -3 -11 0 -18 7 -9 10 -8 11 6 5 10
-3 15 -9 12 -12z m2605 -228 c0 -8 -19 -13 -24 -6 -3 5 1 9 9 9 8 0 15 -2 15
-3z"/>
<path d="M1260 3516 c0 -2 8 -10 18 -17 15 -13 16 -12 3 4 -13 16 -21 21 -21
13z"/>
<path d="M2830 429 c0 -5 5 -7 10 -4 6 3 10 8 10 11 0 2 -4 4 -10 4 -5 0 -10
-5 -10 -11z"/>
<path d="M1696 278 c3 -5 10 -6 15 -3 13 9 11 12 -6 12 -8 0 -12 -4 -9 -9z"/>
<path d="M2070 259 c0 -5 5 -7 10 -4 6 3 10 8 10 11 0 2 -4 4 -10 4 -5 0 -10
-5 -10 -11z"/>
</g>
</svg>
